<?xml version="1.0" standalone="no"?>
<!DOCTYPE svg PUBLIC "-//W3C//DTD SVG 20010904//EN"
 "http://www.w3.org/TR/2001/REC-SVG-20010904/DTD/svg10.dtd">
<svg version="1.0" xmlns="http://www.w3.org/2000/svg"
 width="512.000000pt" height="512.000000pt" viewBox="0 0 512.000000 512.000000"
 preserveAspectRatio="xMidYMid meet">
<metadata>
Created by potrace 1.11, written by Peter Selinger 2001-2013
</metadata>
<g transform="translate(0.000000,512.000000) scale(0.100000,-0.100000)"
fill="#000000" stroke="none">
<path d="M2895 4530 c-12 -4 -27 -15 -34 -24 -7 -9 -19 -16 -25 -16 -29 0
-186 -132 -220 -185 -11 -16 -58 -68 -106 -115 -54 -54 -102 -113 -130 -160
-52 -90 -78 -116 -193 -191 -49 -33 -106 -72 -127 -89 -21 -16 -41 -30 -44
-30 -10 0 -146 -103 -266 -200 -58 -47 -121 -96 -141 -108 -42 -26 -147 -137
-237 -252 -39 -49 -138 -147 -187 -184 -240 -183 -359 -374 -379 -606 -12
-150 22 -285 103 -410 16 -25 88 -162 160 -305 72 -143 140 -271 151 -285 25
-31 147 -220 220 -340 42 -69 86 -121 185 -220 72 -71 146 -139 165 -152 59
-40 134 -73 160 -72 143 7 249 30 309 69 40 25 111 100 111 116 0 6 13 27 29
47 16 20 37 52 47 71 23 42 64 86 124 132 24 19 58 50 75 69 16 19 52 58 79
85 41 43 136 175 136 190 0 3 22 39 50 81 27 41 60 100 73 132 14 31 37 86 52
122 15 36 34 83 42 105 9 22 31 75 50 117 19 42 54 157 79 255 49 195 65 233
131 310 47 56 79 70 176 79 107 9 154 15 217 30 36 8 102 22 148 30 181 31
298 100 441 259 88 97 121 157 121 221 0 29 -5 56 -12 62 -19 14 -167 74 -283
112 -258 86 -398 149 -462 207 -36 33 -46 52 -73 141 -18 56 -41 113 -51 126
-10 13 -42 33 -71 44 -74 28 -272 88 -339 102 -31 7 -81 24 -110 39 l-54 26 0
215 c0 118 3 238 7 266 6 43 4 55 -13 73 -20 22 -49 26 -84 11z"/>
</g>
</svg>
